<svg t="1706364200437" class="icon" viewBox="0 0 1171 1024" version="1.1"
    xmlns="http://www.w3.org/2000/svg" p-id="19060" width="200" height="200">
    <path
        d="M854.616506 294.826667a34.133333 34.133333 0 0 0-36.053333 36.266666v433.493334a54.613333 54.613333 0 0 1-58.453334 58.24H130.563173a54.613333 54.613333 0 0 1-58.24-58.24V134.826667a54.613333 54.613333 0 0 1 58.24-58.24h426.666666a34.133333 34.133333 0 0 0 35.626667-36.053334A34.133333 34.133333 0 0 0 556.803173 4.266667h-426.666667A130.773333 130.773333 0 0 0 0.003173 134.826667v629.76A130.56 130.56 0 0 0 130.563173 896h629.546666a130.56 130.56 0 0 0 130.56-130.346667V331.093333a34.133333 34.133333 0 0 0-36.053333-36.266666"
        p-id="19061" fill='#fff'></path>
    <path
        d="M304.429839 448l-3.413333 88.533333a51.2 51.2 0 0 0 15.146667 38.613334 52.053333 52.053333 0 0 0 36.693333 15.36h2.133333l87.893334-3.413334a65.493333 65.493333 0 0 0 42.666666-18.773333L877.443173 176.64A59.733333 59.733333 0 0 0 896.003173 138.453333a26.453333 26.453333 0 0 0 0-8.106666 90.026667 90.026667 0 0 0-23.253334-41.173334L801.283173 17.92a61.866667 61.866667 0 0 0-87.466667 0L324.269839 407.68a48.213333 48.213333 0 0 0-19.84 40.32m74.666667 69.333333l4.906667-59.733333L762.456506 78.08l54.826667 54.826667L432.856506 512z"
        p-id="19062" fill='#fff'></path>
</svg>