<svg t="1703824287374" class="icon" viewBox="0 0 1024 1024" version="1.1"
    xmlns="http://www.w3.org/2000/svg" p-id="4233" width="200" height="200">
    <path
        d="M512 46.208a42.666667 42.666667 0 0 1 4.992 85.077333L512 131.541333H174.208a42.666667 42.666667 0 0 0-42.368 37.717334l-0.298667 4.949333v492.416l180.608-165.504a88.874667 88.874667 0 0 1 112.085334-6.570667l5.845333 4.608 147.712 126.634667 99.712-99.626667a88.874667 88.874667 0 0 1 110.122667-12.373333l6.058666 4.138667 104.832 78.634666V512a42.666667 42.666667 0 0 1 85.077334-4.992l0.298666 4.992v342.698667a128 128 0 0 1-120.490666 127.786666l-7.509334 0.213334H174.208a128 128 0 0 1-127.786667-120.490667l-0.213333-7.509333V174.208a128 128 0 0 1 120.490667-127.786667l7.509333-0.213333H512zM371.328 563.2l-1.493333 0.853333-238.293334 218.325334v72.32a42.666667 42.666667 0 0 0 37.717334 42.368l4.949333 0.298666H855.893333a42.666667 42.666667 0 0 0 42.368-37.717333l0.298667-4.949333v-151.808l-3.285333-2.090667-152.789334-114.602667a3.541333 3.541333 0 0 0-3.2-0.554666l-1.450666 0.853333-95.061334 94.976 79.786667 68.352a42.666667 42.666667 0 0 1-51.285333 68.010667l-4.266667-3.2-292.48-250.666667a3.541333 3.541333 0 0 0-3.2-0.768zM805.333333 46.208a42.666667 42.666667 0 0 1 42.368 37.717333l0.298667 4.949334v174.293333l42.709333-42.666667a42.666667 42.666667 0 0 1 56.32-3.541333l4.010667 3.541333a42.666667 42.666667 0 0 1 3.584 56.32l-3.584 4.010667-115.541333 115.541333a42.922667 42.922667 0 0 1-3.84 3.413334l3.84-3.413334a42.965333 42.965333 0 0 1-30.165334 12.501334h-1.408l-2.218666-0.128 3.626666 0.128a43.008 43.008 0 0 1-26.154666-8.96l-0.384-0.256a42.922667 42.922667 0 0 1-3.626667-3.285334L659.626667 280.832a42.666667 42.666667 0 0 1 56.32-63.872l4.010666 3.541333 42.666667 42.666667 0.042667-174.293333a42.666667 42.666667 0 0 1 42.666666-42.666667z"
        fill="#ffffff" p-id="4234"></path>
</svg>