<svg t="1704894398960" class="icon" viewBox="0 0 1024 1024" version="1.1"
    xmlns="http://www.w3.org/2000/svg" p-id="7558" width="200" height="200">
    <path
        d="M670.6 403.9c-19.9 0-64 1.7-97.1-1.1-14-1.2 1.2-39.1 4.6-50.9 8.4-29.7 35.4-193.2 42.3-235.5 1.1-6.6-2.6-13-8.7-15.4-14.1-5.5-30.1-4.4-42.9 14L292.4 546.3c-7.6 10.6 3 25.4 14.8 25.4h135.6c9.3 0 45.2-5.9 51.1 3 5.5 7.2-5.1 29.6-7.2 37.6-25.4 87.9-111.5 213.5-125 307.7-0.9 5.9-0.5 9.6 18.3 5.5 25.1-5.6 44.9-17.6 68-41 96.1-97.5 332.9-437.6 341.1-451.4 9.3-15.5 2.8-26.8-26.1-29.1-19-1.6-92.4-0.1-92.4-0.1z m105 11.2"
        fill="#2280BF" p-id="7559"></path>
    <path
        d="M702.3 434.9h-92.5c-19.9 0-76.1 9.7-95.1-2.1-3.8-13.5 8.5-38 11.8-49.9 9.7-34.2 19-68 28.7-102.7L596.6 131c5.5-19.4-19.9-27.9-30.4-13.1L231.5 577.3c-7.6 10.6 3 25.4 14.8 25.4h135.6c9.3 0 45.2-5.9 51.1 3 5.5 7.2-5.1 29.6-7.2 37.6-25.3 87.8-49.8 175.7-74.3 263.6-5.5 19.4 19.9 27.9 30.4 13.1l334.3-459.4c8-10.9-2.1-25.7-13.9-25.7z m12.5 11.2"
        fill="#ffba15" p-id="7560"></path>
</svg>