<svg t="1704107751009" class="icon" viewBox="0 0 1024 1024" version="1.1"
    xmlns="http://www.w3.org/2000/svg" p-id="4266" width="200" height="200">
    <path
        d="M905.841778 614.712889a262.4 262.4 0 0 1-7.395556 41.130667c-0.398222 1.991111-0.739556 4.010667-1.166222 6.001777-2.161778 9.898667-4.807111 19.598222-7.765333 29.184-0.910222 2.844444-1.792 5.888-2.844445 8.789334-2.844444 8.533333-6.087111 17.066667-9.557333 25.230222q-2.446222 5.688889-5.063111 11.548444-4.977778 10.780444-10.581334 21.191111c-2.56 4.750222-5.233778 9.415111-7.964444 14.023112-2.218667 3.697778-4.551111 7.310222-6.883556 10.922666q-7.310222 11.377778-15.416888 22.328889l-2.616889 3.413333q-10.894222 14.222222-23.011556 27.363556l-0.512 0.568889a392.533333 392.533333 0 0 1-91.648 72.931555 397.226667 397.226667 0 0 1-64.512 29.838223c-3.072 1.109333-6.144 2.247111-9.272889 3.271111-6.058667 1.991111-12.117333 3.925333-18.318222 5.688889a407.608889 407.608889 0 0 1-37.461333 8.533333l-1.393778 0.199111a408.519111 408.519111 0 0 1-66.218667 6.200889c-1.422222 0-2.844444 0.199111-4.238222 0.199111-12.259556 0-24.32-0.711111-36.295111-1.763555-3.555556-0.312889-7.025778-0.768-10.581333-1.166223-2.389333-0.284444-4.693333-0.739556-7.054223-1.052444a412.615111 412.615111 0 0 1-29.269333-4.693333 400.298667 400.298667 0 0 1-66.503111-19.911112 396.202667 396.202667 0 0 1-56.718222-28.245333c-4.608-2.702222-9.329778-5.176889-13.795556-8.078222l-1.052444-0.768A318.748444 318.748444 0 0 1 268.970667 881.777778c-3.612444-2.844444-7.224889-5.404444-10.723556-8.248889-3.754667-3.043556-7.224889-6.371556-10.865778-9.528889a384 384 0 0 1-81.692444-99.697778c-5.404444-9.614222-10.24-19.569778-14.791111-29.667555-0.967111-2.161778-1.962667-4.295111-2.844445-6.485334-4.238222-9.955556-8.135111-20.081778-11.52-30.435555-0.568889-1.735111-1.024-3.470222-1.564444-5.205334q-4.465778-14.222222-7.765333-29.155555c-0.398222-1.792-0.881778-3.555556-1.251556-5.376-2.218667-10.808889-3.925333-21.76-5.205333-32.881778l-0.711111-7.310222c-1.080889-11.377778-1.820444-23.04-1.820445-34.787556s0.739556-23.324444 1.820445-34.816c0-1.223111 0-2.474667 0.199111-3.726222 0.199111-2.076444 0.625778-4.124444 0.967111-6.172444q1.536-12.657778 3.925333-25.059556c0.312889-2.048 0.540444-4.096 0.967111-6.087111 0.256-1.194667 0.625778-2.332444 0.910222-3.498667a368.924444 368.924444 0 0 1 19.911112-63.089777c0.483556-1.223111 0.910222-2.503111 1.422222-3.726223 0.824889-1.934222 1.905778-3.754667 2.844444-5.688889q4.949333-10.894222 10.552889-21.447111c0.853333-1.592889 1.507556-3.299556 2.389333-4.892444 0-0.227556 0.227556-0.483556 0.369778-0.739556 0.597333-1.080889 1.336889-2.104889 1.962667-3.185777 5.404444-9.557333 11.121778-18.972444 17.322667-28.017778v0.398222l3.612444-5.12q7.025778-9.870222 14.677333-19.313778c2.048-2.531556 4.039111-5.063111 6.172445-7.537778 7.111111-8.334222 14.449778-16.440889 22.272-24.149333a778.552889 778.552889 0 0 0 23.352889 92.131556 791.153778 791.153778 0 0 0 62.065777 143.246222c-0.512-5.688889-0.881778-11.377778-0.881777-17.066667a178.944 178.944 0 0 1 4.437333-37.546666c0.853333-4.067556 1.479111-8.220444 2.588444-12.174223q-3.384889-18.773333-5.205333-38.030222t-1.792-38.968889c0-10.552889 0.512-20.992 1.28-31.288889l0.625778-7.850666c0.910222-9.841778 2.048-19.626667 3.612444-29.297778 0.398222-2.446222 0.910222-4.807111 1.336889-7.253333q1.991111-11.036444 4.522667-21.873778c0.853333-3.612444 1.678222-7.196444 2.588444-10.780445 2.190222-8.277333 4.551111-16.440889 7.168-24.519111 1.365333-4.209778 2.844444-8.334222 4.408889-12.487111q2.616889-7.281778 5.518222-14.449778c47.672889-118.556444 152.490667-188.16 231.452445-188.16-7.310222 90.396444-19.911111 267.377778 82.062222 379.733334 32.682667-60.785778 19.143111-103.452444 49.237333-142.620445a121.742222 121.742222 0 0 1 98.446223-62.577778l16.412444-0.796444c-35.157333 105.102222 49.237333 205.994667 49.237333 205.994667s32.853333 34.531556 32.853334 174.222222z"
        fill="#dfe6e9" p-id="4267"></path>
    <path
        d="M905.841778 614.712889a262.4 262.4 0 0 1-7.395556 41.130667c-0.398222 1.991111-0.739556 4.010667-1.166222 6.001777-2.161778 9.898667-4.807111 19.598222-7.765333 29.184-0.910222 2.844444-1.792 5.888-2.844445 8.789334-2.844444 8.533333-6.087111 17.066667-9.557333 25.230222q-2.446222 5.688889-5.063111 11.548444-4.977778 10.780444-10.581334 21.191111c-2.56 4.750222-5.233778 9.415111-7.964444 14.023112-2.218667 3.697778-4.551111 7.310222-6.883556 10.922666q-7.310222 11.377778-15.416888 22.328889l-2.616889 3.413333q-10.894222 14.222222-23.011556 27.363556l-0.512 0.568889a392.533333 392.533333 0 0 1-91.648 72.931555 397.226667 397.226667 0 0 1-64.512 29.838223c-3.072 1.109333-6.144 2.247111-9.272889 3.271111-6.058667 1.991111-12.117333 3.925333-18.318222 5.688889a395.150222 395.150222 0 0 1-37.461333 8.533333l-1.393778 0.199111a408.519111 408.519111 0 0 1-66.218667 6.200889c-1.422222 0-2.844444 0.199111-4.238222 0.199111-12.259556 0-24.32-0.711111-36.295111-1.763555-3.555556-0.312889-7.025778-0.768-10.581333-1.166223-2.389333-0.284444-4.693333-0.739556-7.054223-1.052444a412.615111 412.615111 0 0 1-29.269333-4.693333 400.298667 400.298667 0 0 1-66.503111-19.911112 396.202667 396.202667 0 0 1-56.718222-28.245333c-4.608-2.702222-9.329778-5.176889-13.795556-8.078222l-1.052444-0.768A318.748444 318.748444 0 0 1 268.970667 881.777778c-3.612444-2.844444-7.224889-5.404444-10.723556-8.248889s-7.253333-6.286222-10.780444-9.443556a384 384 0 0 1-81.777778-99.783111c-5.404444-9.614222-10.24-19.569778-14.791111-29.667555-0.967111-2.161778-1.962667-4.295111-2.844445-6.485334-4.238222-9.955556-8.135111-20.081778-11.52-30.435555-0.568889-1.735111-1.024-3.470222-1.564444-5.205334q-4.465778-14.222222-7.765333-29.155555c-0.398222-1.792-0.881778-3.555556-1.251556-5.376-2.218667-10.808889-3.925333-21.76-5.205333-32.881778l-0.711111-7.310222c-1.080889-11.377778-1.820444-23.04-1.820445-34.787556s0.739556-23.324444 1.820445-34.816c0-1.223111 0-2.474667 0.199111-3.726222 0.199111-2.076444 0.625778-4.124444 0.967111-6.172444q1.536-12.657778 3.925333-25.059556c0.312889-2.048 0.540444-4.096 0.967111-6.087111 0.256-1.194667 0.625778-2.332444 0.910222-3.498667a368.924444 368.924444 0 0 1 19.911112-63.089777c0.483556-1.223111 0.910222-2.503111 1.422222-3.726223 0.824889-1.934222 1.905778-3.754667 2.844444-5.688889q4.949333-10.894222 10.552889-21.447111c0.853333-1.592889 1.507556-3.299556 2.389333-4.892444 0-0.227556 0.227556-0.483556 0.369778-0.739556 0.597333-1.080889 1.336889-2.104889 1.962667-3.185777 5.404444-9.557333 11.121778-18.972444 17.322667-28.017778v0.398222l3.612444-5.12q7.025778-9.870222 14.677333-19.313778c2.048-2.531556 4.039111-5.063111 6.172445-7.537778 7.111111-8.334222 14.449778-16.440889 22.272-24.149333a778.552889 778.552889 0 0 0 23.352889 92.131556 791.153778 791.153778 0 0 0 62.065777 143.246222c-0.512-5.688889-0.540444-11.377778-0.881777-17.066667a1169.066667 1169.066667 0 0 1 0-126.748444c0-10.552889 0.512-20.992 1.28-31.288889l0.625777-7.850667c0.910222-9.841778 2.048-19.626667 3.612445-29.297778 0.398222-2.446222 0.910222-4.807111 1.336889-7.253333q1.991111-11.036444 4.522666-21.873778c0.853333-3.612444 1.678222-7.196444 2.588445-10.780444 2.190222-8.277333 4.551111-16.440889 7.168-24.519111 1.365333-4.209778 2.844444-8.334222 4.408889-12.487111q2.616889-7.281778 5.518222-14.449778C393.870222 130.304 518.371556 56.888889 597.333333 56.888889c-19.143111 95.431111-14.449778 297.301333 56.888889 369.777778 65.649778-84.707556 26.823111-103.054222 56.888889-142.222223a135.424 135.424 0 0 1 96.284445-49.208888l16.412444-0.796445c-35.157333 105.102222 49.237333 205.994667 49.237333 205.994667s32.796444 34.588444 32.796445 174.279111zM824.888889 455.111111a353.308444 353.308444 0 0 1-56.888889-142.222222s-31.687111 40.704-85.333333 199.111111c-121.059556-46.108444-169.216-318.350222-142.222223-398.222222-172.145778 62.122667-142.648889 363.633778-199.111111 512-99.015111-41.472-117.077333-168.021333-142.222222-199.111111-50.147556 45.511111-26.368 249.571556 28.444445 341.333333a350.520889 350.520889 0 0 0 284.444444 142.222222 311.04 311.04 0 0 0 199.111111-56.888889c113.066667-103.708444 136.049778-192.284444 142.222222-256a266.951111 266.951111 0 0 0-28.444444-142.222222z"
        fill="#333333" p-id="4268"></path>
</svg>