<svg t="1706363765411" class="icon" viewBox="0 0 1024 1024" version="1.1"
    xmlns="http://www.w3.org/2000/svg" p-id="4232" width="200" height="200">
    <path
        d="M506.8 107.1C286 107.1 107.1 286 107.1 506.8S286 906.5 506.8 906.5s399.7-178.9 399.7-399.7c0.1-220.7-178.9-399.7-399.7-399.7z m243.7 404.2L538.9 668.9c-3.7 2.9-8.4 4.6-13.5 4.6-11.8 0-21.4-9.1-22.2-20.6v-77.7h-59c-73.3 0-139.6 28.4-188.9 74.8-1.6 1.2-3.5 2-5.7 2-5.1 0-9.3-4.1-9.3-9.2 0-0.5 0.1-1 0.1-1.5 24.7-121.4 134.2-213.5 262.8-218.6v-78.4c0.9-11.5 10.4-20.6 22.2-20.6 4.8 0 9.4 1.6 13 4.3l212.3 158.1c3.5 3.1 5.8 7.6 5.8 12.5 0.1 5.1-2.3 9.6-6 12.7z"
        fill="#fff" p-id="4233"></path>
</svg>