<svg t="1704772786206" class="icon" viewBox="0 0 1024 1024" version="1.1"
    xmlns="http://www.w3.org/2000/svg" p-id="6998" width="200" height="200">
    <path
        d="M736.478 909.678h-452.7c-95.7 0-173.5-77.8-173.5-173.5v-452.7c0-95.7 77.8-173.5 173.5-173.5h452.7c95.7 0 173.5 77.8 173.5 173.5v452.7c0 95.7-77.8 173.5-173.5 173.5z m-452.7-709.7c-46.1 0-83.5 37.5-83.5 83.5v452.7c0 46.1 37.5 83.5 83.5 83.5h452.7c46.1 0 83.5-37.5 83.5-83.5v-452.7c0-46.1-37.5-83.5-83.5-83.5h-452.7z"
        fill="#3F85FF" p-id="6999"></path>
    <path
        d="M305.378 773.478c-11.5 0-23-4.4-31.8-13.2-17.5-17.6-17.6-46.1 0-63.6l49-49-49-48.9c-17.5-17.6-17.6-46.1 0-63.6s46.1-17.6 63.6 0l80.8 80.8c8.4 8.4 13.2 19.9 13.2 31.8s-4.7 23.3-13.2 31.8l-80.8 80.8c-8.8 8.7-20.3 13.1-31.8 13.1zM629.778 773.478h-148.7c-24.8 0-45-20.1-45-45s20.1-45 45-45h148.7c24.8 0 45 20.1 45 45s-20.2 45-45 45z"
        fill="#A4BEEC" p-id="7000"></path>
</svg>