<svg version="1.1" xmlns="http://www.w3.org/2000/svg" viewBox="0 0 220 220" width="220" height="220">
    <!-- svg-source:excalidraw -->

    <defs>
        <style class="style-fonts">
            @font-face {
            font-family: "Virgil";
            src: url("https://excalidraw.com/Virgil.woff2");
            }
            @font-face {
            font-family: "Cascadia";
            src: url("https://excalidraw.com/Cascadia.woff2");
            }
            @font-face {
            font-family: "Assistant";
            src: url("https://excalidraw.com/Assistant-Regular.woff2");
            }
        </style>

    </defs>
    <rect x="0" y="0" width="220" height="220" fill="#ffffff"></rect>
    <g stroke-linecap="round" transform="translate(10 10) rotate(0 100 100)">
        <path
            d="M7.86 8.16 C7.86 8.16, 7.86 8.16, 7.86 8.16 M7.86 8.16 C7.86 8.16, 7.86 8.16, 7.86 8.16 M2.35 20.59 C7.64 13.33, 14.67 7.07, 18.1 2.48 M2.35 20.59 C6.47 16.15, 9.86 11.84, 18.1 2.48 M1.43 27.75 C9.2 20.78, 14.92 14.21, 24.4 1.33 M1.43 27.75 C7.1 20.93, 14.79 12.01, 24.4 1.33 M1.17 34.14 C8.67 24.18, 20.89 14.75, 30.7 0.18 M1.17 34.14 C9.67 24.67, 18.6 12.72, 30.7 0.18 M0.91 40.54 C8.88 30.19, 17.63 20.03, 36.34 -0.21 M0.91 40.54 C9.45 30.45, 17.21 20.81, 36.34 -0.21 M1.31 46.19 C8.99 36.65, 18.54 26.74, 41.33 0.15 M1.31 46.19 C16.71 27.48, 32.74 10.08, 41.33 0.15 M1.04 52.58 C16.38 32.11, 35.27 11.9, 46.97 -0.25 M1.04 52.58 C15.98 35.17, 31.4 16.68, 46.97 -0.25 M0.78 58.98 C15.49 44.18, 28.85 27.36, 51.96 0.11 M0.78 58.98 C11.78 44.97, 23.98 33.39, 51.96 0.11 M1.18 64.62 C14.6 49.08, 27.86 33.12, 57.6 -0.28 M1.18 64.62 C14.41 49.14, 28.14 33.4, 57.6 -0.28 M0.92 71.02 C20.2 49.73, 36.61 27.26, 62.59 0.08 M0.92 71.02 C15.18 53.41, 30.49 36.45, 62.59 0.08 M0.65 77.42 C17.33 55.28, 35.06 35.8, 67.57 0.44 M0.65 77.42 C25.49 48.36, 49.15 21.1, 67.57 0.44 M1.05 83.06 C22.95 56.87, 41.7 32.7, 73.22 0.04 M1.05 83.06 C26.69 52.8, 54.23 21.74, 73.22 0.04 M0.79 89.46 C19.44 70.98, 33.94 51.13, 78.2 0.41 M0.79 89.46 C28.31 56.48, 57.36 25.18, 78.2 0.41 M1.18 95.1 C19.69 73.91, 37.29 54.6, 83.85 0.01 M1.18 95.1 C25.14 65.67, 51.33 38.33, 83.85 0.01 M0.92 101.5 C29.63 67.52, 56.15 35.75, 88.83 0.37 M0.92 101.5 C26.33 73.33, 50.77 45.35, 88.83 0.37 M0.66 107.9 C28 74.13, 55.28 43.87, 94.48 -0.02 M0.66 107.9 C30.17 73.53, 58.61 39.7, 94.48 -0.02 M1.05 113.54 C30.52 77.62, 63.48 41.38, 99.46 0.34 M1.05 113.54 C37.16 69.94, 73.94 26.81, 99.46 0.34 M0.79 119.94 C31.62 88.83, 58.65 55.1, 105.11 -0.06 M0.79 119.94 C36.72 79.27, 73.55 37.76, 105.11 -0.06 M0.53 126.34 C26.08 94.75, 52.05 68.4, 110.09 0.3 M0.53 126.34 C34.62 87.92, 67.88 47.15, 110.09 0.3 M0.93 131.98 C40.07 83.97, 85.86 32.92, 115.74 -0.09 M0.93 131.98 C34.43 92.61, 67.65 54.24, 115.74 -0.09 M0.66 138.38 C46.87 83.42, 96.41 30.97, 120.72 0.27 M0.66 138.38 C41.74 90.53, 84.43 41.3, 120.72 0.27 M0.4 144.78 C36.05 102.57, 74.59 57.1, 126.37 -0.13 M0.4 144.78 C36.55 105.81, 72.38 63.79, 126.37 -0.13 M0.8 150.42 C24.37 117.69, 51.82 88.69, 131.35 0.23 M0.8 150.42 C48.63 94.49, 97.17 38.99, 131.35 0.23 M0.54 156.82 C37.81 115.24, 76.49 72.19, 137 -0.16 M0.54 156.82 C35.34 117.22, 68.34 80.12, 137 -0.16 M0.93 162.46 C53.45 101.41, 106.68 37.85, 141.98 0.2 M0.93 162.46 C35.86 121.69, 69.6 82.33, 141.98 0.2 M0.01 169.61 C29.1 133.41, 58.34 99.87, 147.63 -0.2 M0.01 169.61 C44.2 117.04, 89.31 65.03, 147.63 -0.2 M1.06 174.5 C47.15 120.45, 95.23 65.01, 152.61 0.16 M1.06 174.5 C43.31 127.6, 82.92 80.21, 152.61 0.16 M1.46 180.14 C45.05 127.76, 90 77.96, 158.26 -0.23 M1.46 180.14 C35.53 141.14, 68.61 101.64, 158.26 -0.23 M3.17 184.28 C52.11 125.16, 104.27 66.13, 163.24 0.13 M3.17 184.28 C56.21 122.39, 110.73 58.5, 163.24 0.13 M5.53 187.66 C39.84 148.23, 73.92 110.9, 168.23 0.49 M5.53 187.66 C56.95 129.9, 107.52 70.81, 168.23 0.49 M7.89 191.04 C70.58 122.26, 129.21 50.93, 173.22 0.85 M7.89 191.04 C63.62 124.06, 122.36 57.76, 173.22 0.85 M10.91 193.66 C71.83 123.31, 132.91 52.64, 177.55 1.96 M10.91 193.66 C68.31 125.1, 127.22 59.03, 177.55 1.96 M14.58 195.53 C75.32 125.49, 134.04 57, 182.54 2.32 M14.58 195.53 C49.12 156.71, 83.32 118.14, 182.54 2.32 M17.6 198.15 C58.65 153, 97.5 108.85, 186.21 4.19 M17.6 198.15 C65.25 141.48, 114.9 84.61, 186.21 4.19 M21.93 199.27 C62.54 150.29, 107.59 103.69, 189.23 6.82 M21.93 199.27 C57.68 156.7, 92.67 116.2, 189.23 6.82 M26.92 199.63 C90.49 126.02, 154.75 56.3, 192.9 8.69 M26.92 199.63 C75.37 141.56, 124.37 85.1, 192.9 8.69 M31.25 200.74 C87.3 137.9, 141.08 75.54, 194.61 12.82 M31.25 200.74 C79.37 143.52, 130.09 85.86, 194.61 12.82 M36.9 200.35 C83.81 148.77, 128.12 93.82, 196.97 16.2 M36.9 200.35 C92.27 137.03, 147.17 73.75, 196.97 16.2 M41.88 200.71 C98.98 137.89, 154.46 72.81, 198.68 20.33 M41.88 200.71 C103.86 130.17, 164.03 60.52, 198.68 20.33 M47.53 200.31 C95.66 147.03, 139.94 94.96, 199.08 25.98 M47.53 200.31 C108.35 130.81, 169.28 60.96, 199.08 25.98 M52.51 200.67 C110.24 132.12, 170.41 65.32, 200.13 30.87 M52.51 200.67 C82.68 165.87, 114.05 131.2, 200.13 30.87 M58.16 200.28 C102.76 151.03, 142.91 103.43, 200.52 36.51 M58.16 200.28 C92.93 157.82, 128.64 116.36, 200.52 36.51 M63.14 200.64 C117.2 137.23, 168.73 79.37, 200.26 42.91 M63.14 200.64 C103.34 154.77, 143.31 109.39, 200.26 42.91 M68.79 200.25 C96.47 168.1, 124.45 137.44, 200 49.3 M68.79 200.25 C107.04 155.55, 146.28 111.04, 200 49.3 M73.77 200.61 C123.22 144.63, 171.13 89.29, 200.39 54.95 M73.77 200.61 C122.31 142.85, 169.54 87.94, 200.39 54.95 M78.76 200.97 C112.37 161.2, 144.23 122.72, 200.13 61.34 M78.76 200.97 C119.82 155.73, 159.41 109.97, 200.13 61.34 M84.4 200.57 C121.38 157.6, 160.83 115.97, 200.53 66.99 M84.4 200.57 C112.94 169.75, 141.07 136.42, 200.53 66.99 M89.39 200.93 C116.4 169.1, 147.33 134.5, 200.26 73.39 M89.39 200.93 C126.22 156.45, 164.33 114.13, 200.26 73.39 M95.03 200.54 C118.54 170.38, 142.12 142.68, 200 79.78 M95.03 200.54 C116.02 174.24, 137.94 148.13, 200 79.78 M100.02 200.9 C133.92 157.83, 172.08 121.02, 200.4 85.43 M100.02 200.9 C134.38 161.33, 169.95 120.68, 200.4 85.43 M105.66 200.5 C130.72 175.16, 152.57 145.09, 200.14 91.82 M105.66 200.5 C130.41 172.03, 154.31 145.08, 200.14 91.82 M110.65 200.86 C138.05 168.4, 165.16 137.06, 200.53 97.47 M110.65 200.86 C143.85 162.65, 176.58 123.42, 200.53 97.47 M116.29 200.47 C132.14 179.31, 148.3 162.43, 200.27 103.87 M116.29 200.47 C146.01 168.08, 175.08 132.49, 200.27 103.87 M121.28 200.83 C147.19 172.58, 173.13 141.98, 200.01 110.26 M121.28 200.83 C140.06 179.49, 156.31 159.51, 200.01 110.26 M126.92 200.43 C153.98 168.32, 182.39 133.49, 200.4 115.91 M126.92 200.43 C146.11 178.77, 165.8 155.69, 200.4 115.91 M131.91 200.79 C154.5 174.05, 175.66 149.13, 200.14 122.3 M131.91 200.79 C154.42 174.02, 176.76 148.12, 200.14 122.3 M137.55 200.4 C152.74 183.93, 166.96 166.1, 200.53 127.95 M137.55 200.4 C161.33 173.06, 185.06 145.73, 200.53 127.95 M142.54 200.76 C163.39 178.02, 179.25 155.54, 200.27 134.34 M142.54 200.76 C161.86 179.6, 180.61 155.81, 200.27 134.34 M148.18 200.36 C161.5 188.43, 168.8 174.25, 200.01 140.74 M148.18 200.36 C163.1 183.6, 176.38 167.89, 200.01 140.74 M153.17 200.72 C161.51 188.59, 173.61 178.92, 200.41 146.39 M153.17 200.72 C165.24 185.69, 179.26 171.21, 200.41 146.39 M158.81 200.33 C172.01 182.89, 187.38 167.01, 200.15 152.78 M158.81 200.33 C173.07 184.31, 187.22 167.25, 200.15 152.78 M163.8 200.69 C178.86 185.2, 193.14 166.58, 200.54 158.43 M163.8 200.69 C177.25 184.03, 191.88 168.42, 200.54 158.43 M169.44 200.3 C180.55 189.31, 189.07 177.44, 200.28 164.82 M169.44 200.3 C176.3 192.85, 182.66 184.68, 200.28 164.82 M175.74 199.15 C182.41 189.93, 192.14 183.76, 199.36 171.98 M175.74 199.15 C183.66 190.59, 191.85 180.6, 199.36 171.98 M182.04 198 C185.7 190.26, 192.52 185.88, 198.44 179.13 M182.04 198 C185.7 192.55, 190.09 187.42, 198.44 179.13"
            stroke="#a5d8ff" stroke-width="0.5" fill="none"></path>
        <path
            d="M32 0 C72.89 -1.29, 115.66 -1.7, 168 0 M32 0 C77.26 0.95, 121.63 0.24, 168 0 M168 0 C189.91 1.91, 201.86 10.87, 200 32 M168 0 C190.17 -0.34, 201.2 10, 200 32 M200 32 C201.17 86.19, 199.37 137.89, 200 168 M200 32 C200.59 64.51, 200.78 97.49, 200 168 M200 168 C201.08 188.35, 188.03 201.69, 168 200 M200 168 C197.92 187.5, 191.06 198.21, 168 200 M168 200 C134.34 200.97, 100.84 201.34, 32 200 M168 200 C125.32 199.43, 83.08 198.62, 32 200 M32 200 C8.75 198.67, 0.24 187.73, 0 168 M32 200 C10.98 201.62, -0.06 191.1, 0 168 M0 168 C1.49 134.82, -1.25 101.59, 0 32 M0 168 C-0.16 123.16, -0.66 79.36, 0 32 M0 32 C1.92 9.67, 12.4 0.92, 32 0 M0 32 C-1.89 11.3, 9.68 -1.72, 32 0"
            stroke="#1e1e1e" stroke-width="1" fill="none"></path>
    </g>
    <g transform="translate(10 90) rotate(0 98.0244140625 20.700000000000045)">
        <text x="0" y="0" font-family="Helvetica, Segoe UI Emoji" font-size="36px" fill="#1e1e1e"
            text-anchor="start" style="white-space: pre;" direction="ltr"
            dominant-baseline="text-before-edge">&lt;代码贴贴/&gt;</text>
    </g>
</svg>