<svg t="1703907851512" class="icon" viewBox="0 0 1072 1024" version="1.1"
    xmlns="http://www.w3.org/2000/svg" p-id="20685" width="200" height="200">
    <path
        d="M538.468767 329.069831h239.320848A59.71818 59.71818 0 0 1 837.620875 388.898996v388.896902a59.71818 59.71818 0 0 1-59.83126 59.831259H388.892714a59.71818 59.71818 0 0 1-59.829165-59.831259V538.475049h119.660424a89.568894 89.568894 0 0 0 89.744794-89.744794zM-0.002094 59.835447a59.71818 59.71818 0 0 1 59.831259-59.831259h388.894808a59.71818 59.71818 0 0 1 59.829165 59.829165v388.896902a59.71818 59.71818 0 0 1-59.829165 59.829165H59.829165a59.71818 59.71818 0 0 1-59.831259-59.829165z m119.660424 258.255268h43.675646v-23.153935h63.001655v110.565956h46.278553v-110.565956h64.287402v19.294597h47.564301v-146.552242h-111.851703v-32.129043a68.735169 68.735169 0 0 1 3.888655-24.410366 9.869268 9.869268 0 0 0 1.256431-3.888655c0-0.837621-2.992401-1.675242-8.975108-2.54218h-43.76569v62.970244H119.65833z m43.675646-114.393883h63.001655v56.539409H163.363293v-56.510092z m173.56761 56.539409h-64.287402v-56.510092h64.287402v56.539409z m190.558749 456.203928l18.008849-50.137892h93.842854l18.008849 50.137892h51.394323l-83.552682-237.794285h-60.428064l-86.094862 237.823601H527.491746z m30.872611-89.983517l34.700539-101.532214h1.285748l32.129043 101.532214z m219.456669-387.129522h-59.831259a119.660424 119.660424 0 0 0-119.660424-119.662518v-59.829165a179.489589 179.489589 0 0 1 179.491683 179.489589zM59.829165 598.304214h59.829165a119.660424 119.660424 0 0 0 119.660424 119.660425v59.831259a179.489589 179.489589 0 0 1-179.489589-179.491684z"
        fill="#222222" p-id="20686"></path>
</svg>