<svg t="1703858389256" class="icon" viewBox="0 0 1024 1024" version="1.1"
    xmlns="http://www.w3.org/2000/svg" p-id="17750" width="200" height="200">
    <path
        d="M874.666667 469.333333a146.346667 146.346667 0 0 0-42.666667 5.973334V426.666667a128 128 0 0 0-128-128H140.373333a128 128 0 0 0-128 128v245.333333a341.333333 341.333333 0 0 0 341.333334 341.333333h138.666666a341.333333 341.333333 0 0 0 329.813334-256 145.066667 145.066667 0 0 0 52.48 10.666667 149.333333 149.333333 0 0 0 0-298.666667z m-128 202.666667a256 256 0 0 1-256 256H353.706667a256 256 0 0 1-256-256V426.666667a42.666667 42.666667 0 0 1 42.666666-42.666667h565.333334a42.666667 42.666667 0 0 1 42.666666 42.666667z m128 10.666667a62.72 62.72 0 0 1-37.546667-12.373334h-3.413333v-101.546666h2.986666A64 64 0 1 1 874.666667 682.666667zM216.746667 193.28l-8.106667 12.373333a42.666667 42.666667 0 0 0 11.946667 59.306667 42.666667 42.666667 0 0 0 23.466666 7.253333 42.666667 42.666667 0 0 0 35.413334-19.2l8.106666-12.373333a102.826667 102.826667 0 0 0-13.226666-128A19.626667 19.626667 0 0 1 271.36 85.333333l9.386667-15.786666A42.666667 42.666667 0 0 0 265.813333 11.52a42.666667 42.666667 0 0 0-58.453333 14.506667L197.973333 42.666667A105.386667 105.386667 0 0 0 213.333333 170.666667a16.64 16.64 0 0 1 3.413334 22.613333zM395.52 193.28l-8.106667 12.373333a42.666667 42.666667 0 0 0 11.52 59.306667 42.666667 42.666667 0 0 0 23.893334 7.253333 42.666667 42.666667 0 0 0 35.413333-19.2l8.106667-12.373333a102.826667 102.826667 0 0 0-13.226667-128 20.053333 20.053333 0 0 1-3.413333-27.306667l9.813333-15.786666a42.666667 42.666667 0 0 0-14.933333-58.026667 42.666667 42.666667 0 0 0-58.453334 14.506667L376.746667 42.666667a105.386667 105.386667 0 0 0 16.64 128 17.493333 17.493333 0 0 1 2.133333 22.613333zM574.293333 193.28l-8.106666 12.373333a42.666667 42.666667 0 0 0 11.52 59.306667 42.666667 42.666667 0 0 0 23.893333 7.253333 42.666667 42.666667 0 0 0 35.413333-19.2l8.106667-12.373333a102.826667 102.826667 0 0 0-13.226667-128 20.053333 20.053333 0 0 1-3.413333-27.306667l11.52-15.36a42.666667 42.666667 0 0 0-16.64-58.453333 42.666667 42.666667 0 0 0-58.453333 14.506667L554.666667 42.666667a105.813333 105.813333 0 0 0 16.213333 128 17.493333 17.493333 0 0 1 3.413333 22.613333z"
        fill="#fff" p-id="17751"></path>
</svg>